<?xml version="1.0" encoding="utf-8"?>
<!-- Generator: Adobe Illustrator 17.0.0, SVG Export Plug-In . SVG Version: 6.00 Build 0)  -->
<!DOCTYPE svg PUBLIC "-//W3C//DTD SVG 1.1//EN" "http://www.w3.org/Graphics/SVG/1.1/DTD/svg11.dtd">
<svg version="1.1" id="Layer_1" xmlns="http://www.w3.org/2000/svg" xmlns:xlink="http://www.w3.org/1999/xlink" x="0px" y="0px"
	 width="130.719px" height="93.857px" viewBox="0 0 130.719 93.857" enable-background="new 0 0 130.719 93.857"
	 xml:space="preserve">
<g>
	<g>
		<path d="M32.062,61.467l0.029-0.674h0.387c0.264,0,0.484-0.032,0.662-0.099c0.18-0.065,0.323-0.176,0.438-0.327l0.79-1.348
			l5.236-8.953c0.737-1.261,1.229-2.13,1.474-2.603h1.95c0.085,0.653,0.182,1.333,0.287,2.04l1.365,8.716
			c0.146,0.944,0.252,1.553,0.323,1.827c0.068,0.274,0.15,0.449,0.241,0.529c0.092,0.079,0.276,0.132,0.555,0.158l0.445,0.051
			c0.15,0.006,0.31,0.009,0.474,0.009l0.011,0.674c-0.806-0.067-1.736-0.1-2.792-0.1c-1.353,0-2.463,0.032-3.334,0.1l0.01-0.674
			h0.385c0.456,0,0.782-0.04,0.979-0.119c0.199-0.078,0.298-0.241,0.298-0.485c0-0.41-0.053-0.972-0.159-1.686l-0.336-2.5
			l-1.574-0.01l-2.941,0.01l-0.824,1.488c-0.866,1.566-1.298,2.504-1.298,2.816c0,0.151,0.079,0.262,0.236,0.327
			c0.252,0.104,0.772,0.158,1.566,0.158l-0.119,0.674c-0.812-0.067-1.61-0.1-2.396-0.1C33.636,61.368,32.848,61.4,32.062,61.467z
			 M40.819,49.771l-3.072,5.253l1.955,0.021l1.932-0.021L40.819,49.771z"/>
		<path d="M58.898,58.953l-0.238,0.782c-1.09,0.64-1.874,1.061-2.353,1.267c-0.479,0.205-0.99,0.36-1.535,0.471
			c-0.546,0.108-1.115,0.162-1.709,0.162c-1.795,0-3.176-0.466-4.14-1.4c-0.965-0.934-1.446-2.264-1.446-3.992
			c0-1.729,0.359-3.229,1.078-4.499c0.721-1.269,1.797-2.317,3.229-3.142c1.433-0.825,2.928-1.236,4.487-1.236
			c0.759,0,1.479,0.087,2.159,0.262c0.679,0.174,1.234,0.394,1.664,0.657c-0.402,1.307-0.646,2.411-0.733,3.315H58.66
			c0.033-0.256,0.05-0.498,0.05-0.723c0-0.263-0.026-0.679-0.079-1.246c-0.443-0.343-0.92-0.595-1.431-0.752
			c-0.511-0.159-1.12-0.237-1.825-0.237c-1.128,0-2.027,0.229-2.697,0.687c-0.669,0.459-1.21,1.22-1.618,2.282
			c-0.521,1.332-0.781,2.804-0.781,4.413c0,1.458,0.34,2.546,1.02,3.261c0.679,0.716,1.655,1.075,2.929,1.075
			c0.699,0,1.384-0.112,2.054-0.337c0.669-0.225,1.47-0.641,2.399-1.247L58.898,58.953z"/>
		<path d="M59.735,61.467l0.108-0.674h0.604c0.548,0,0.891-0.097,1.029-0.293c0.138-0.193,0.325-0.994,0.563-2.401l1.043-6.289
			c0.258-1.571,0.386-2.564,0.386-2.98c0-0.212-0.063-0.364-0.188-0.455c-0.124-0.093-0.356-0.14-0.692-0.14h-0.96l0.108-0.673
			l3.811,0.069c0.363,0,1.207-0.024,2.533-0.069l-0.109,0.673H67.24c-0.462,0-0.751,0.094-0.869,0.282
			c-0.12,0.188-0.345,1.192-0.674,3.014L65.344,53.6l0.743-0.012l3.221,0.029L71.21,53.6l0.318-1.902
			c0.224-1.326,0.336-2.278,0.336-2.859c0-0.243-0.102-0.405-0.302-0.485c-0.202-0.079-0.695-0.118-1.48-0.118l0.109-0.673
			c2.077,0.06,3.341,0.089,3.79,0.089c0.851,0,1.695-0.029,2.533-0.089l-0.108,0.673h-0.268c-0.64,0-1.033,0.049-1.178,0.149
			c-0.105,0.071-0.207,0.28-0.307,0.623c-0.158,0.548-0.359,1.565-0.604,3.051l-0.803,4.773c-0.303,1.829-0.456,2.935-0.456,3.317
			c0,0.252,0.085,0.407,0.254,0.467c0.168,0.059,0.622,0.118,1.36,0.178h0.277l-0.12,0.674c-1.12-0.067-2.235-0.1-3.344-0.1
			c-1.088,0-2.114,0.032-3.077,0.1l0.108-0.674h0.316c0.74,0,1.175-0.093,1.308-0.278c0.164-0.236,0.404-1.308,0.722-3.212
			l0.45-2.735l-0.436-0.01h-2.516l-2.527,0.02l-0.365-0.01l-0.283,1.676c-0.369,2.255-0.555,3.559-0.555,3.915
			c0,0.225,0.073,0.378,0.218,0.457c0.218,0.118,0.652,0.178,1.307,0.178h0.257l-0.109,0.674c-1.431-0.067-2.357-0.1-2.779-0.1
			L59.735,61.467z"/>
		<path d="M75.724,61.467l0.108-0.674h0.614c0.376,0,0.632-0.026,0.771-0.079c0.14-0.054,0.24-0.117,0.308-0.194
			c0.065-0.075,0.128-0.219,0.188-0.43c0.059-0.212,0.191-0.914,0.396-2.109c0.284-1.631,0.567-3.285,0.852-4.963
			c0.383-2.297,0.574-3.69,0.574-4.179c0-0.212-0.086-0.365-0.257-0.46c-0.173-0.097-0.556-0.144-1.147-0.144h-0.526l0.109-0.673
			c1.821,0.046,2.9,0.069,3.237,0.069l3.274-0.069l-0.118,0.673h-0.247c-0.666,0-1.073,0.041-1.216,0.125
			c-0.146,0.081-0.256,0.229-0.327,0.44c-0.106,0.296-0.258,1.038-0.457,2.227l-1.119,6.735c-0.205,1.216-0.306,2.001-0.306,2.358
			c0,0.237,0.084,0.408,0.257,0.515c0.171,0.106,0.538,0.158,1.098,0.158h0.595l-0.118,0.674c-1.539-0.067-2.687-0.1-3.445-0.1
			C77.904,61.368,76.871,61.4,75.724,61.467z"/>
		<path d="M83.746,61.467l0.108-0.674c0.693-0.093,1.099-0.195,1.217-0.307c0.118-0.112,0.262-0.571,0.426-1.378
			c0.066-0.329,0.331-1.877,0.792-4.644l0.687-4.1c0.132-0.786,0.198-1.311,0.198-1.575c0-0.179-0.066-0.303-0.198-0.376
			c-0.211-0.118-0.552-0.179-1.02-0.179h-0.731l0.108-0.673l1.167,0.03l1.099,0.039l3.643-0.039l3.265-0.01
			c0.516,0,0.93,0.025,1.247,0.078l0.101,0.079c-0.213,1.037-0.384,2.072-0.517,3.108h-0.693l0.03-0.654l0.01-0.791
			c0-0.303-0.096-0.488-0.286-0.555c-0.555-0.205-1.521-0.307-2.9-0.307c-0.579,0-1.135,0.04-1.663,0.119
			c-0.355,2.123-0.637,3.808-0.844,5.048l2.902,0.079c0.25,0,0.839-0.027,1.763-0.079l0.06,0.128l-0.238,0.96
			c-1.305-0.065-2.586-0.1-3.845-0.1c-0.284,0-0.55,0.007-0.802,0.021l-0.94,5.581c0.706,0.093,1.415,0.138,2.128,0.138
			c1.07,0,1.964-0.062,2.684-0.188c0.382-0.064,0.617-0.138,0.703-0.217c0.118-0.126,0.283-0.548,0.494-1.268l0.257-0.821h0.713
			l-0.317,1.802c-0.111,0.593-0.19,1.102-0.236,1.524l-0.15,0.168c-0.302,0.021-0.615,0.031-0.94,0.031l-7.747-0.139
			C84.924,61.329,84.346,61.375,83.746,61.467z"/>
		<path d="M101.286,61.467c-0.14-0.958-0.399-2.594-0.781-4.91c-0.198-1.186-0.479-2.775-0.842-4.766
			c-0.362-1.987-0.567-3.042-0.614-3.161c-0.047-0.118-0.129-0.214-0.247-0.287c-0.118-0.071-0.333-0.108-0.644-0.108h-0.691v-0.673
			c0.916,0.046,1.84,0.069,2.771,0.069c1.055,0,2.134-0.024,3.236-0.069v0.673h-0.743c-0.323,0-0.545,0.047-0.667,0.138
			c-0.122,0.093-0.185,0.258-0.185,0.495c0,0.376,0.083,1.073,0.247,2.089l0.604,3.642c0.297,1.808,0.528,3.141,0.693,3.999
			l2.256-4.217c1.036-1.92,1.87-3.599,2.505-5.038c0.164-0.368,0.247-0.593,0.247-0.672c0-0.146-0.055-0.254-0.163-0.327
			c-0.11-0.071-0.352-0.108-0.729-0.108h-0.831l0.108-0.673c0.853,0.046,1.602,0.069,2.247,0.069c0.627,0,1.365-0.024,2.217-0.069
			l-0.108,0.673h-0.356c-0.285,0-0.505,0.069-0.663,0.207c-0.099,0.1-0.351,0.512-0.752,1.237l-4.898,8.918l-1.555,2.87H101.286z"/>
		<path d="M109.646,61.467l0.108-0.674c0.693-0.093,1.098-0.195,1.217-0.307c0.119-0.112,0.262-0.571,0.427-1.378
			c0.065-0.329,0.329-1.877,0.791-4.644l0.688-4.1c0.13-0.786,0.197-1.311,0.197-1.575c0-0.179-0.067-0.303-0.197-0.376
			c-0.213-0.118-0.552-0.179-1.021-0.179h-0.732l0.109-0.673l1.167,0.03l1.098,0.039l3.643-0.039l3.267-0.01
			c0.515,0,0.93,0.025,1.247,0.078l0.099,0.079c-0.212,1.037-0.383,2.072-0.516,3.108h-0.693l0.031-0.654l0.01-0.791
			c0-0.303-0.096-0.488-0.288-0.555c-0.554-0.205-1.52-0.307-2.899-0.307c-0.58,0-1.134,0.04-1.663,0.119
			c-0.355,2.123-0.637,3.808-0.846,5.048l2.903,0.079c0.252,0,0.84-0.027,1.764-0.079l0.059,0.128l-0.236,0.96
			c-1.306-0.065-2.588-0.1-3.846-0.1c-0.284,0-0.551,0.007-0.801,0.021l-0.941,5.581c0.705,0.093,1.416,0.138,2.129,0.138
			c1.069,0,1.962-0.062,2.683-0.188c0.383-0.064,0.617-0.138,0.702-0.217c0.12-0.126,0.284-0.548,0.495-1.268l0.257-0.821h0.713
			l-0.316,1.802c-0.113,0.593-0.192,1.102-0.237,1.524l-0.148,0.168c-0.304,0.021-0.618,0.031-0.94,0.031l-7.747-0.139
			C110.822,61.329,110.245,61.375,109.646,61.467z"/>
	</g>
	<g>
		<path d="M9.115,53.99l-0.19,0.624c-0.869,0.511-1.495,0.848-1.876,1.012C6.666,55.789,6.256,55.915,5.822,56
			c-0.435,0.088-0.889,0.131-1.363,0.131c-1.433,0-2.535-0.373-3.305-1.116C0.386,54.268,0,53.206,0,51.826
			c0-1.38,0.287-2.575,0.861-3.59c0.575-1.013,1.435-1.85,2.577-2.507c1.145-0.659,2.338-0.987,3.58-0.987
			c0.607,0,1.183,0.069,1.724,0.208c0.543,0.14,0.986,0.316,1.328,0.526c-0.321,1.042-0.515,1.925-0.584,2.646H8.925
			c0.026-0.205,0.04-0.398,0.04-0.576c0-0.211-0.021-0.543-0.063-0.995c-0.353-0.273-0.732-0.475-1.141-0.601
			c-0.409-0.126-0.895-0.188-1.458-0.188c-0.9,0-1.618,0.183-2.151,0.548c-0.535,0.366-0.965,0.973-1.291,1.82
			c-0.417,1.065-0.624,2.237-0.624,3.523c0,1.163,0.271,2.03,0.812,2.602c0.543,0.571,1.323,0.857,2.34,0.857
			c0.558,0,1.104-0.089,1.639-0.268s1.172-0.511,1.915-0.995L9.115,53.99z"/>
		<path d="M22.09,53.896l0.253,0.521c-0.537,0.53-1.03,1.063-1.478,1.595c-0.343,0.085-0.658,0.127-0.947,0.127
			c-0.938,0-1.915-0.374-2.931-1.122c-0.532,0.405-1.053,0.693-1.56,0.864c-0.509,0.171-1.075,0.258-1.702,0.258
			c-1.131,0-2.032-0.307-2.7-0.917c-0.669-0.612-1.004-1.364-1.004-2.261c0-0.628,0.173-1.181,0.518-1.66s1.012-0.98,2.002-1.501
			c-0.354-0.77-0.529-1.442-0.529-2.016c0-0.327,0.035-0.593,0.104-0.799c0.035-0.116,0.141-0.269,0.316-0.459l0.567-0.624
			c0.432-0.485,0.757-0.777,0.973-0.877c0.404-0.19,0.802-0.284,1.191-0.284c0.316,0,0.62,0.076,0.908,0.232
			c0.29,0.157,0.509,0.365,0.656,0.63c0.147,0.264,0.222,0.568,0.222,0.917c0,0.563-0.191,1.07-0.577,1.522
			c-0.385,0.45-1.046,0.979-1.982,1.584c0.832,1.286,1.925,2.509,3.277,3.67c0.206-0.307,0.344-0.566,0.42-0.784
			c0.072-0.216,0.109-0.454,0.109-0.718c0-0.385-0.107-0.777-0.323-1.177h-0.395c-0.2-0.005-0.529,0.007-0.987,0.039l-0.088-0.127
			c0.2-0.298,0.374-0.623,0.522-0.979c0.857,0.042,1.634,0.063,2.329,0.063c1.091,0,1.98-0.047,2.67-0.142l0.11,0.079
			c-0.147,0.393-0.239,0.773-0.276,1.144l-0.102,0.097c-1.032-0.079-1.788-0.125-2.267-0.135c0.067,0.216,0.103,0.411,0.103,0.585
			c0,0.805-0.374,1.639-1.122,2.495c0.895,0.521,1.738,0.782,2.528,0.782c0.126,0,0.237-0.022,0.331-0.07
			C21.502,54.307,21.789,54.122,22.09,53.896z M12.865,50.46c-0.59,0.379-0.887,0.922-0.887,1.627c0,0.775,0.288,1.461,0.861,2.063
			c0.575,0.601,1.217,0.9,1.928,0.9c0.495,0,1.01-0.18,1.54-0.538c-0.741-0.61-1.37-1.219-1.883-1.823
			C13.91,52.082,13.391,51.34,12.865,50.46z M14.042,48.943c0.572-0.379,0.973-0.739,1.195-1.078
			c0.224-0.34,0.336-0.675,0.336-1.007c0-0.211-0.042-0.401-0.126-0.572c-0.085-0.172-0.211-0.308-0.379-0.407
			c-0.169-0.101-0.322-0.149-0.459-0.149c-0.232,0-0.469,0.099-0.711,0.296c-0.241,0.196-0.362,0.51-0.362,0.936
			C13.536,47.55,13.704,48.212,14.042,48.943z"/>
		<path d="M22.084,55.997l0.087-0.537c0.553-0.074,0.877-0.156,0.973-0.246c0.094-0.089,0.207-0.454,0.339-1.098
			c0.053-0.264,0.263-1.5,0.633-3.708l0.547-3.272c0.104-0.627,0.158-1.045,0.158-1.256c0-0.143-0.054-0.243-0.158-0.301
			c-0.169-0.096-0.439-0.143-0.813-0.143h-0.585l0.087-0.536l0.933,0.024l0.876,0.03l2.907-0.03l2.606-0.008
			c0.411,0,0.743,0.02,0.997,0.062l0.077,0.064c-0.168,0.825-0.304,1.653-0.41,2.48h-0.553L30.807,47l0.008-0.632
			c0-0.241-0.075-0.39-0.229-0.441c-0.443-0.163-1.214-0.244-2.314-0.244c-0.463,0-0.906,0.03-1.328,0.094
			c-0.283,1.696-0.508,3.039-0.674,4.028l2.317,0.063c0.2,0,0.669-0.021,1.407-0.063l0.047,0.103l-0.19,0.766
			c-1.042-0.053-2.063-0.078-3.068-0.078c-0.226,0-0.439,0.005-0.64,0.016l-0.751,4.454c0.563,0.074,1.13,0.111,1.7,0.111
			c0.852,0,1.565-0.051,2.14-0.15c0.306-0.054,0.493-0.11,0.562-0.173c0.095-0.102,0.226-0.438,0.395-1.012l0.206-0.655h0.567
			l-0.252,1.438c-0.09,0.474-0.152,0.879-0.19,1.217L30.4,55.972c-0.241,0.017-0.492,0.024-0.75,0.024l-6.184-0.11
			C23.024,55.886,22.564,55.924,22.084,55.997z"/>
	</g>
	<path fill="#DE6B02" d="M102.679,4.073c-3.217-2.137-8.074-3.027-12.337-3.626c-0.009-0.001-0.017-0.003-0.023-0.004
		C90.012,0.4,89.705,0.36,89.398,0.324c-0.115-0.014-0.229-0.027-0.343-0.04c-0.195-0.021-0.393-0.042-0.588-0.062
		c-0.206-0.02-0.412-0.04-0.617-0.057c-0.101-0.009-0.202-0.017-0.301-0.024c-0.286-0.022-0.57-0.042-0.854-0.06l-0.05-0.003
		c-0.59-0.034-1.178-0.06-1.771-0.07c-5.862-0.113-11.762,0.916-17.252,3.09c-5.483,2.177-10.564,5.436-14.802,9.591
		c-4.232,4.153-7.685,9.139-9.988,14.637c-0.064,0.152-0.125,0.309-0.188,0.461c-1.727,4.2-2.827,8.668-3.202,13.219
		c-0.118,1.472-0.157,2.949-0.133,4.429c1.115-0.154,2.2,0.164,3.313-0.201c-0.001-0.162-0.006-0.323-0.004-0.484
		c-0.077-10.116,5.387-23.083,12.215-30.046c3.887-3.977,8.537-7.24,13.675-9.461c5.127-2.241,10.723-3.469,16.355-3.575
		c5.649-0.111,11.327,0.878,16.618,2.964c0.293,0.116,0.584,0.237,0.874,0.359C102.454,4.682,102.563,4.377,102.679,4.073
		L102.679,4.073C103.174,5.251,103.34,4.643,102.679,4.073z"/>
	<path fill="#DE6B02" d="M56.946,44.353c0.209-1.062,0.449-2.092,0.734-3.072c1.818-6.304,4.828-12.295,8.93-17.473
		c4.076-5.192,9.21-9.594,15.004-12.849c5.812-3.275,12.265-5.417,18.929-6.203c0.369-0.043,0.74-0.08,1.111-0.114
		c-0.071-0.375-0.131-0.753-0.179-1.133c0,0,0,0-0.001,0c0,0,0.001-0.001,0-0.004C96.403,3.799,91.392,4.873,86.626,6.63
		c-0.01,0.004-0.017,0.007-0.027,0.01c-0.343,0.126-0.684,0.257-1.023,0.391c-0.126,0.049-0.252,0.101-0.378,0.15
		c-0.215,0.086-0.431,0.175-0.645,0.264c-0.227,0.094-0.451,0.188-0.673,0.285c-0.111,0.048-0.219,0.095-0.329,0.145
		c-0.308,0.135-0.614,0.273-0.92,0.414l-0.055,0.025c-0.63,0.293-1.258,0.597-1.878,0.915c-6.157,3.156-11.714,7.522-16.208,12.849
		c-4.483,5.324-7.943,11.55-10.029,18.235c-0.399,1.28-0.747,2.575-1.047,3.882C54.592,44.247,55.77,44.3,56.946,44.353z"/>
	<path fill="#DE6B02" d="M90.107,44.561c-0.603-2.91-0.91-5.885-0.885-8.87c0.021-5.593,1.16-11.208,3.34-16.403
		c2.179-5.214,5.377-10.008,9.423-14.003c0.226-0.222,0.454-0.44,0.684-0.656c-0.242-0.214-0.479-0.434-0.71-0.664l0,0
		c-0.001,0-0.001-0.001-0.001-0.001c-3.237,2.835-6.029,6.163-8.302,9.821c-0.004,0.007-0.007,0.013-0.012,0.019
		c-0.163,0.262-0.323,0.527-0.481,0.794c-0.058,0.1-0.116,0.198-0.175,0.297c-0.099,0.171-0.196,0.342-0.294,0.514
		c-0.102,0.18-0.201,0.36-0.301,0.542c-0.049,0.089-0.097,0.176-0.145,0.265c-0.135,0.251-0.267,0.505-0.398,0.758l-0.022,0.045
		c-0.271,0.525-0.898,1.055-1.147,1.589c-2.473,5.318-4.28,11.131-4.511,17.031c-0.114,2.981-0.664,5.978-0.188,8.932
		C86.868,44.563,89.221,44.56,90.107,44.561z"/>
	<path fill="#DE6B02" d="M102.019,4.68c0.19,0.253,0.376,0.506,0.561,0.764c3.299,4.632,5.628,9.904,6.876,15.416
		c1.254,5.491,0.309,11.22-0.63,16.732c-0.322,1.93-0.786,3.831-1.372,5.692c0.859,0.025,2.82,0.058,3.679,0.094
		c0.473-1.791,0.838-3.608,1.086-5.439c0.788-5.852,0.366-11.826-1.153-17.49c-0.153-0.569-0.319-1.136-0.496-1.698l-0.014-0.049
		c-0.085-0.273-0.173-0.544-0.263-0.815c-0.032-0.096-0.064-0.192-0.097-0.287c-0.066-0.195-0.134-0.39-0.204-0.585
		c-0.067-0.187-0.134-0.371-0.201-0.557c-0.041-0.107-0.081-0.215-0.121-0.322c-0.11-0.29-0.223-0.578-0.337-0.864
		c-0.004-0.008-0.008-0.015-0.01-0.023c-1.607-3.993-3.276-8.101-6.488-11.104c-0.001,0.001-0.385-0.184-0.386-0.184"/>
	<path fill="#DE6B02" d="M113.344,18.153c-6.774,1.176-13.708,1.182-20.43,0.015c-7.699-1.304-15.089-4.175-21.672-8.279
		c-2.089-1.292-4.089-2.716-5.994-4.257c-1.525,0.603-3.087,1.083-4.668,1.512c1.104,0.932,2.234,1.828,3.399,2.68
		c1.682,1.234,3.47,2.02,5.261,3.082c7.125,4.213,15.18,6.219,23.331,7.345c7.048,0.967,13.9,0.624,20.785-0.827
		C113.335,19,113.335,18.578,113.344,18.153z"/>
	<path fill="#DE6B02" d="M101.587,36.664c-7.372,0.857-14.867,0.523-22.075-0.982c-8.218-1.683-16.03-4.917-22.92-9.342
		c-2.185-1.393-5.006-3.281-6.982-4.915c-1.665,0.528-2.633,1.297-4.353,1.644c1.145,0.987,2.319,1.939,3.531,2.847
		c1.752,1.315,3.638,2.19,5.516,3.34c7.466,4.558,16.032,6.96,24.743,8.488c7.452,1.3,14.761,1.311,22.148,0.235
		C101.315,37.537,101.446,37.1,101.587,36.664z"/>
	<path fill="#DE6B02" d="M130.483,36.047c-0.568-0.838-4.208-2.994-4.362-3.086l-0.065-0.038h-0.002
		c-0.097-0.06-0.198-0.104-0.305-0.104c-0.229,0-0.419,0.152-0.565,0.46c-0.073,0.159-1.764,3.911-1.741,4.925
		c0.018,0.833,0.499,0.922,0.705,0.922c0.149,0,0.264-0.042,0.276-0.047l0.071-0.029l1.508-3.452
		c1.433,4.954,1.976,10.277,1.55,15.468c-0.458,5.544-2.077,11.122-4.683,16.135c-2.564,4.952-6.165,9.46-10.411,13.034
		c-4.165,3.53-9.173,6.308-14.486,8.03c-4.232,1.39-8.679,2.094-13.217,2.094c-6.644,0.001-13.204-1.536-18.978-4.447
		c-6.951-3.372-12.879-8.684-17.136-15.353c-1.007-1.724-1.905-3.545-2.669-5.413c-0.051-0.125-0.204-0.502-1.736-0.502
		c-0.017,0-1.856,0.015-2.053,0.351l-0.055,0.118l0.051,0.091c0.065,0.119,0.111,0.251,0.16,0.392
		c0.027,0.079,0.056,0.158,0.085,0.235l0.129,0.314c0.035,0.093,0.072,0.185,0.111,0.275c0.621,1.475,1.345,2.954,2.154,4.399
		l0.192,0.343c0.086,0.15,0.173,0.301,0.26,0.45c1.395,2.393,2.997,4.637,4.765,6.672c0.321,0.371,0.651,0.735,0.984,1.096
		c0.141,0.151,0.282,0.303,0.427,0.455l0.138,0.145c0.365,0.385,0.733,0.762,1.111,1.133c4.197,4.105,9.335,7.435,14.86,9.626
		c3.991,1.58,8.228,2.57,12.596,2.945l0.792,0.063c0.146,0.011,0.291,0.021,0.437,0.03c0.874,0.054,1.763,0.08,2.644,0.08l0,0
		c2.46,0,4.952-0.208,7.408-0.619c1.08-0.18,2.174-0.404,3.251-0.667c1.471-0.358,2.923-0.787,4.314-1.275
		c5.54-1.943,10.802-5.074,15.216-9.054c3.903-3.529,7.139-7.722,9.617-12.465l0.032-0.064c0.141-0.27,0.279-0.541,0.417-0.815
		l0.43-0.892c0.115-0.246,0.227-0.491,0.338-0.739l0.102-0.226c2.398-5.43,3.711-11.358,3.798-17.146
		c0.119-5.403-0.425-10.06-1.651-14.193l2.752,1.606l0.065,0.039l0.072-0.018c0.015-0.004,0.368-0.097,0.491-0.419
		C130.771,36.665,130.705,36.375,130.483,36.047z"/>
	<g>
		<path fill="#DE6B02" d="M125.836,12.606c0,2.352-1.893,4.22-4.297,4.22c-2.403,0-4.321-1.867-4.321-4.22
			c0-2.354,1.918-4.194,4.348-4.194C123.943,8.412,125.836,10.253,125.836,12.606z M118.292,12.606c0,1.866,1.406,3.35,3.273,3.35
			c1.815,0.025,3.196-1.483,3.196-3.324c0-1.867-1.381-3.376-3.248-3.376C119.698,9.256,118.292,10.764,118.292,12.606z
			 M120.875,14.78h-0.973v-4.194c0.384-0.052,0.921-0.128,1.611-0.128c0.793,0,1.151,0.128,1.433,0.332
			c0.256,0.18,0.435,0.486,0.435,0.895c0,0.512-0.384,0.844-0.869,0.997v0.052c0.408,0.128,0.613,0.46,0.741,1.023
			c0.128,0.64,0.23,0.869,0.307,1.023h-1.022c-0.128-0.154-0.205-0.512-0.333-1.023c-0.076-0.435-0.332-0.64-0.869-0.64h-0.46V14.78
			z M120.9,12.426h0.46c0.537,0,0.972-0.179,0.972-0.613c0-0.384-0.281-0.64-0.895-0.64c-0.256,0-0.435,0.025-0.537,0.052V12.426z"
			/>
	</g>
</g>
</svg>
